<svg width="24" height="24" viewBox="0 0 24 24" fill="none" xmlns="http://www.w3.org/2000/svg">
<g id="icn shopping-cart .icn-sm" clip-path="url(#clip0_143_778)">
<path id="Vector" d="M9.68506 21.7565C9.68506 22.4408 9.14398 22.9782 8.49756 22.9782C7.85114 22.9782 7.31006 22.4408 7.31006 21.7565C7.31006 21.0722 7.85114 20.5348 8.49756 20.5348C9.14398 20.5348 9.68506 21.0722 9.68506 21.7565Z" fill="#F3808B" stroke="#F3808B"/>
<path id="Vector_2" d="M19.9375 21.7565C19.9375 22.4408 19.3964 22.9782 18.75 22.9782C18.1036 22.9782 17.5625 22.4408 17.5625 21.7565C17.5625 21.0722 18.1036 20.5348 18.75 20.5348C19.3964 20.5348 19.9375 21.0722 19.9375 21.7565Z" fill="#F3808B" stroke="#F3808B"/>
<path id="Vector_3" d="M22.9184 3.41177L22.9185 3.41166C22.8945 3.38144 22.8648 3.35781 22.8321 3.34179C22.7999 3.32598 22.7651 3.31779 22.7302 3.31737H7.80139L7.97036 3.8478H21.7499H22.3707L22.2384 4.45434L20.2359 13.6369L20.1501 14.0304H19.7474H8.49737H8.12874L8.01973 13.6783L4.59304 2.60817C4.59294 2.60784 4.59283 2.6075 4.59272 2.60717C4.57945 2.56566 4.55691 2.52894 4.52782 2.49972C4.49854 2.4703 4.46355 2.44934 4.42623 2.43772L4.42527 2.43742L1.35029 1.47325C1.35028 1.47325 1.35028 1.47325 1.35027 1.47325C1.3195 1.4636 1.28739 1.46029 1.25566 1.46336C1.22391 1.46643 1.19269 1.47588 1.16374 1.49153C1.10527 1.52314 1.05855 1.57891 1.03738 1.64921C1.01614 1.71974 1.02344 1.79593 1.05678 1.86014C1.08994 1.92398 1.14487 1.96876 1.20681 1.98822C1.20686 1.98824 1.20691 1.98825 1.20695 1.98827L3.89906 2.82988L4.14962 2.90822L4.22741 3.15895L7.66991 14.2546L7.76876 14.5732L7.51253 14.7868L6.30186 15.7961L6.23519 15.8641C6.01249 16.1317 5.88528 16.4709 5.87708 16.8252C5.8688 17.1834 5.98271 17.5321 6.19742 17.812C6.35257 18.0032 6.54845 18.1542 6.76911 18.2538C6.99126 18.3541 7.23283 18.3998 7.47466 18.3876L7.48726 18.3869H7.49987H20.0174C20.0804 18.3869 20.1429 18.3615 20.1906 18.3128C20.2386 18.2638 20.2674 18.1953 20.2674 18.1217C20.2674 18.0482 20.2386 17.9796 20.1906 17.9306C20.1429 17.882 20.0804 17.8565 20.0174 17.8565H7.37987H7.37116L7.36246 17.8562C7.18825 17.8501 7.01917 17.7983 6.87159 17.7066C6.72407 17.6149 6.6034 17.4866 6.52027 17.3352M22.9184 3.41177L6.52027 17.3352M22.9184 3.41177L22.9268 3.42179C22.9523 3.45218 22.9712 3.48884 22.9814 3.5292C22.9913 3.56829 22.9927 3.60927 22.9853 3.64903M22.9184 3.41177L22.9853 3.64903M6.52027 17.3352C6.43717 17.1838 6.39409 17.0138 6.39453 16.8415C6.39497 16.6692 6.43891 16.4994 6.52279 16.3485L6.56712 16.2687L6.63677 16.2097L8.44427 14.6793L8.58412 14.5608H8.76737H20.3474H20.3598L20.3598 14.561C20.4149 14.5624 20.4699 14.5444 20.5156 14.508C20.5615 14.4715 20.5954 14.4183 20.6091 14.3562L20.6092 14.3556L22.9853 3.64903M6.52027 17.3352L22.9853 3.64903" fill="#F3808B" stroke="#F3808B"/>
</g>
<defs>
<clipPath id="clip0_143_778">
<rect width="24" height="22.9565" fill="white" transform="translate(0 0.521729)"/>
</clipPath>
</defs>
</svg>
