<svg width="22" height="23" viewBox="0 0 22 23" fill="none" xmlns="http://www.w3.org/2000/svg">
<g id="Home">
<mask id="mask0_416_550" style="mask-type:luminance" maskUnits="userSpaceOnUse" x="0" y="0" width="22" height="23">
<path id="Clip 2" fill-rule="evenodd" clip-rule="evenodd" d="M0.083374 0.54187H21.4373V22.9429H0.083374V0.54187Z" fill="white"/>
</mask>
<g mask="url(#mask0_416_550)">
<path id="Fill 1" fill-rule="evenodd" clip-rule="evenodd" d="M12.2883 15.4285C13.5425 15.4285 14.5633 16.442 14.5633 17.6878V20.892C14.5633 21.1597 14.7779 21.3743 15.0529 21.3805H17.0383C18.6029 21.3805 19.8748 20.1243 19.8748 18.5806V9.49305C19.8675 8.9618 19.6144 8.4618 19.18 8.12951L12.3123 2.65243C11.3904 1.92222 10.1008 1.92222 9.17584 2.65451L2.355 8.12743C1.90396 8.47013 1.65084 8.97013 1.64563 9.51076V18.5806C1.64563 20.1243 2.91751 21.3805 4.48209 21.3805H6.48626C6.76855 21.3805 6.99771 21.1566 6.99771 20.8816C6.99771 20.8212 7.00501 20.7608 7.01751 20.7035V17.6878C7.01751 16.4493 8.03209 15.4368 9.27688 15.4285H12.2883ZM17.0383 22.9431H15.0342C13.8863 22.916 13.0008 22.0149 13.0008 20.892V17.6878C13.0008 17.3035 12.681 16.991 12.2883 16.991H9.28209C8.89771 16.993 8.58001 17.3066 8.58001 17.6878V20.8816C8.58001 20.9597 8.56959 21.0347 8.54771 21.1056C8.43521 22.1368 7.55396 22.9431 6.48626 22.9431H4.48209C2.05605 22.9431 0.0831299 20.9858 0.0831299 18.5805V9.50347C0.0935466 8.46805 0.57063 7.52013 1.39459 6.89618L8.20188 1.43263C9.70084 0.245134 11.7894 0.245134 13.2852 1.43055L20.1415 6.8993C20.9467 7.51284 21.4238 8.45868 21.4373 9.48159V18.5805C21.4373 20.9858 19.4644 22.9431 17.0383 22.9431V22.9431Z" fill="#F7F9FC"/>
</g>
</g>
</svg>
