<svg width="200" height="200" viewBox="0 0 200 200" fill="none" xmlns="http://www.w3.org/2000/svg">
<g id="account_circle_24px">
<path id="Path" d="M99.9998 16.6667C53.9998 16.6667 16.6665 54 16.6665 100C16.6665 146 53.9998 183.333 99.9998 183.333C146 183.333 183.333 146 183.333 100C183.333 54 146 16.6667 99.9998 16.6667Z" fill="#2C1800"/>
<path id="Path_2" d="M58.9165 152.333C62.4998 144.833 84.3332 137.5 99.9998 137.5C115.667 137.5 137.583 144.833 141.083 152.333C129.75 161.333 115.5 166.667 99.9998 166.667C84.4998 166.667 70.2498 161.333 58.9165 152.333Z" fill="#F1F1F1"/>
<path id="Path_3" d="M153 140.25C141.083 125.75 112.167 120.833 100 120.833C87.8335 120.833 58.9168 125.75 47.0002 140.25C38.5002 129.083 33.3335 115.167 33.3335 100C33.3335 63.25 63.2502 33.3333 100 33.3333C136.75 33.3333 166.667 63.25 166.667 100C166.667 115.167 161.5 129.083 153 140.25Z" fill="#2C1800"/>
<path id="Path_4" d="M100 50C83.8335 50 70.8335 63 70.8335 79.1667C70.8335 95.3333 83.8335 108.333 100 108.333C116.167 108.333 129.167 95.3333 129.167 79.1667C129.167 63 116.167 50 100 50Z" fill="#F1F1F1"/>
<path id="Path_5" d="M100 91.6667C93.0833 91.6667 87.5 86.0833 87.5 79.1667C87.5 72.25 93.0833 66.6667 100 66.6667C106.917 66.6667 112.5 72.25 112.5 79.1667C112.5 86.0833 106.917 91.6667 100 91.6667Z" fill="#F1F1F1"/>
</g>
</svg>
