<svg width="36" height="34" viewBox="0 0 36 34" fill="none" xmlns="http://www.w3.org/2000/svg">
<g id="Pastry Bag">
<path id="Shape" d="M6 28C6.24477 27.959 6.48691 27.9178 6.72642 27.8765L8.13186 27.627C8.58982 27.5434 9.03724 27.4592 9.47413 27.3744L10.7532 27.1186L11.9691 26.8596C12.1665 26.8161 12.3613 26.7726 12.5534 26.7288L13.6745 26.465C13.8561 26.4208 14.0351 26.3764 14.2114 26.3319L15.2378 26.0633C16.2325 25.7931 17.1325 25.5181 17.9378 25.2383L18.7114 24.9569C20.3192 24.3438 21.482 23.7081 22.2 23.05C25.1823 20.3162 25.1823 15.8838 22.2 13.15C19.2177 10.4162 14.3823 10.4162 11.4 13.15C10.682 13.8081 9.9886 14.8741 9.31972 16.3479L9.01275 17.0571C8.70752 17.7952 8.40752 18.6202 8.11275 19.5321L7.81972 20.4729C7.72263 20.7962 7.62611 21.1291 7.53018 21.4716L7.24412 22.5283L6.96155 23.6429C6.91475 23.8335 6.86809 24.0265 6.82157 24.2219L6.54423 25.4234C6.45236 25.8335 6.36108 26.2533 6.27037 26.6827L6 28ZM6 28L7.69733 27.6871L9.68223 27.3098L11.3492 26.978L12.6982 26.6918L13.5013 26.507L14.3045 26.3038L15.2083 26.0569L16.2128 25.7663C16.3886 25.7142 16.5686 25.6603 16.7528 25.6046L17.9083 25.2485L7.62929 21.1219L6 28ZM25.44 12.16L24.9 12.655L33 11.17L24.36 3.25L22.74 10.675L23.28 10.18M25.44 12.16L23.28 10.18M25.44 12.16L23.28 14.14L21.12 12.16L23.28 10.18M29.25 6.6875L26.25 9.4375" stroke="#F3808B" stroke-width="1.55963" stroke-linejoin="round"/>
</g>
</svg>
