<svg width="33" height="36" viewBox="0 0 33 36" fill="none" xmlns="http://www.w3.org/2000/svg">
<g id="Cupcake">
<path id="Oval Copy 7" d="M18.8574 7.32179C18.8574 8.69515 17.8021 9.80849 16.5002 9.80849C15.1984 9.80849 14.1431 8.69515 14.1431 7.32179M18.8574 7.32179C18.8574 5.94842 17.8021 4.83508 16.5002 4.83508C15.1984 4.83508 14.1431 5.94842 14.1431 7.32179M18.8574 7.32179C18.8574 7.41125 18.8529 7.49962 18.8442 7.58664C23.6434 8.68382 27.276 13.0888 27.4902 18.4269L27.473 18.1021C27.491 18.236 27.5002 18.3728 27.5002 18.5119C27.5002 20.1142 26.269 21.4131 24.7502 21.4131M14.1431 7.32179C14.1431 7.41125 14.1476 7.49962 14.1579 7.58544C9.48871 8.65371 5.92467 12.8497 5.53555 17.9898L5.53006 18.0832C5.51042 18.2231 5.50024 18.3663 5.50024 18.5119C5.50024 20.1142 6.73146 21.4131 8.25024 21.4131M24.7502 21.4131C23.3005 21.4131 22.1128 20.2296 22.0078 18.7285L21.9989 18.5295L21.9927 18.7285C21.8877 20.2296 20.7 21.4131 19.2502 21.4131M24.7502 21.4131C25.1618 21.4131 25.5523 21.3177 25.9028 21.1467L24.3574 29.7021H8.6431L7.09775 21.1468C7.44828 21.3177 7.83871 21.4131 8.25024 21.4131M24.7502 21.4131C23.2315 21.4131 22.0002 20.1142 22.0002 18.5119M8.25024 21.4131C9.69465 21.4131 10.879 20.2383 10.9915 18.745L10.9989 18.5295L11.0078 18.7285C11.1128 20.2296 12.3005 21.4131 13.7502 21.4131M8.25024 21.4131C9.76903 21.4131 11.0002 20.1142 11.0002 18.5119C11.0002 20.1142 12.2315 21.4131 13.7502 21.4131M13.7502 21.4131C15.2 21.4131 16.3877 20.2296 16.4927 18.7285L16.4989 18.5295M13.7502 21.4131C15.2634 21.4131 16.4898 20.1236 16.4989 18.5295M16.4989 18.5295L16.5078 18.7285C16.6128 20.2296 17.8005 21.4131 19.2502 21.4131M16.4989 18.5295L16.5002 18.5119C16.5002 20.1142 17.7315 21.4131 19.2502 21.4131M19.2502 21.4131C20.769 21.4131 22.0002 20.1142 22.0002 18.5119M22.0002 18.5119L22.003 18.4066C21.9997 18.4422 22.0002 18.477 22.0002 18.5119ZM21.411 23.8998L21.0181 27.2154M16.6967 23.8998V27.2154M11.9824 23.8998L12.3752 27.2154" stroke="#F3808B" stroke-width="1.55963" stroke-linejoin="round"/>
</g>
</svg>
